<svg xmlns="http://www.w3.org/2000/svg" viewBox="0 0 512 512" width="512" height="512">
  <defs>
    <linearGradient id="bg" x1="0" y1="0" x2="1" y2="1">
      <stop offset="0%" stop-color="#8b5cf6"/>
      <stop offset="100%" stop-color="#6d28d9"/>
    </linearGradient>
    <filter id="shadow" x="-20%" y="-20%" width="140%" height="140%">
      <feDropShadow dx="0" dy="8" stdDeviation="6" flood-color="#000" flood-opacity="0.18"/>
    </filter>
  </defs>
  <!-- Rounded square background -->
  <rect width="512" height="512" rx="96" ry="96" fill="url(#bg)"/>
  <!-- Phone receiver -->
  <g filter="url(#shadow)" transform="translate(256,256)">
    <g transform="translate(-110,-110)">
      <path d="M30,12 L80,12 C90,12 100,22 100,32 L100,72 C100,86 86,96 72,92 C60,90 50,88 40,85 C32,82 28,76 30,68 L34,52 C36,42 30,32 22,30 L8,28 C0,26 -4,18 -2,10 C2,-4 12,-10 26,-8 L30,12 Z" fill="white" transform="rotate(-15) translate(60,40)"/>
      <!-- Simpler phone shape -->
      <g transform="translate(20,20)">
        <path d="M48 8 C58 8 70 14 84 28 L156 100 C170 114 176 126 176 136 C176 148 170 158 160 168 L138 190 C132 196 122 198 114 192 C92 178 70 162 50 142 C30 122 14 100 0 78 C-6 70 -4 60 2 54 L24 32 C34 22 38 8 48 8 Z" fill="white"/>
      </g>
      <!-- Call out arrow lines -->
      <g stroke="white" stroke-width="14" stroke-linecap="round" fill="none" opacity="0.85">
        <path d="M148 36 L168 16"/>
        <path d="M168 16 L168 40"/>
        <path d="M168 16 L148 16"/>
      </g>
    </g>
  </g>
</svg>
